<?xml version="1.0" standalone="no"?>
<!DOCTYPE svg PUBLIC "-//W3C//DTD SVG 20010904//EN"
 "http://www.w3.org/TR/2001/REC-SVG-20010904/DTD/svg10.dtd">
<svg version="1.0" xmlns="http://www.w3.org/2000/svg"
 width="720.000000pt" height="720.000000pt" viewBox="0 0 720.000000 720.000000"
 preserveAspectRatio="xMidYMid meet">
<metadata>
Created by potrace 1.11, written by Peter Selinger 2001-2013
</metadata>
<g transform="translate(0.000000,720.000000) scale(0.100000,-0.100000)"
fill="#000000" stroke="none">
<path d="M3381 6251 c-231 -433 -379 -697 -479 -856 -80 -126 -150 -235 -156
-241 -8 -8 -93 49 -321 217 -170 125 -310 227 -311 226 -1 -1 43 -301 97 -667
54 -366 98 -677 99 -691 0 -25 -2 -26 -77 -33 -42 -3 -166 -7 -277 -7 -111 -1
-262 -4 -337 -8 l-136 -6 238 -600 c131 -330 239 -606 239 -612 0 -7 -3 -13
-7 -13 -29 1 -673 -115 -673 -121 0 -8 109 -155 174 -234 588 -719 1203 -1169
1722 -1260 48 -8 100 -15 115 -15 16 0 29 -4 29 -9 0 -23 -42 -296 -61 -396
-15 -81 -36 -146 -81 -250 -110 -257 -113 -306 -18 -339 66 -22 251 -27 287
-8 35 19 38 53 18 219 -19 152 -19 154 3 391 13 130 25 271 29 313 l6 76 103
11 c390 43 704 179 1017 440 337 282 530 482 864 898 150 187 433 561 433 572
0 5 -132 57 -292 116 -161 59 -297 111 -301 116 -5 4 100 283 232 621 132 337
240 614 238 615 -1 1 -224 -88 -495 -198 -271 -111 -494 -199 -496 -197 -2 2
74 306 170 674 96 369 173 673 171 676 -1 3 -207 -113 -457 -257 -250 -145
-460 -263 -467 -264 -6 0 -14 8 -17 18 -3 9 -114 397 -246 862 -133 465 -242
845 -243 846 -1 1 -152 -280 -336 -625z"/>
</g>
</svg>
